<svg width="330" height="88" viewBox="0 0 330 88" fill="none" xmlns="http://www.w3.org/2000/svg">
<path d="M184.95 26H181.24L173.943 4.71696H178.717L183.156 18.7942L187.686 4.71696H191.396L195.895 18.7942L200.365 4.71696H205.047L197.75 26H194.01L189.48 11.8012L184.95 26ZM228.052 15.3585C228.052 21.5002 223.127 26.3953 216.924 26.3953C210.722 26.3953 205.796 21.5002 205.796 15.3585C205.796 9.2168 210.722 4.3217 216.924 4.3217C223.127 4.3217 228.052 9.2168 228.052 15.3585ZM223.37 15.3585C223.37 11.6796 220.543 8.76073 216.924 8.76073C213.306 8.76073 210.479 11.6796 210.479 15.3585C210.479 19.0374 213.306 21.9562 216.924 21.9562C220.543 21.9562 223.37 19.0374 223.37 15.3585ZM236.093 18.2165V26H231.563V4.71696H238.647C243.238 4.71696 246.43 7.17971 246.43 11.5275C246.43 14.568 244.606 16.6963 242.052 17.6692L247.92 26H242.539L237.309 18.2165H236.093ZM236.093 8.82154V14.4463H238.677C240.502 14.4463 241.839 13.4126 241.839 11.6187C241.839 9.79448 240.502 8.82154 238.677 8.82154H236.093ZM255.067 4.71696V13.139L262.243 4.71696H267.716L258.959 14.7504L268.324 26H262.577L256.04 17.8212L255.067 18.9158V26H250.476V4.71696H255.067ZM270.756 26V4.71696H283.282V8.85195H275.317V13.1694H282.583V17.1827H275.317V21.865H283.343V26H270.756ZM291.527 18.2165V26H286.997V4.71696H294.081C298.673 4.71696 301.865 7.17971 301.865 11.5275C301.865 14.568 300.041 16.6963 297.487 17.6692L303.355 26H297.973L292.744 18.2165H291.527ZM291.527 8.82154V14.4463H294.112C295.936 14.4463 297.274 13.4126 297.274 11.6187C297.274 9.79448 295.936 8.82154 294.112 8.82154H291.527ZM305.213 24.571V19.159C307.281 21.0745 310.169 22.1082 312.48 22.1082C314.547 22.1082 315.703 21.2873 315.703 19.7975C315.703 18.0645 313.574 17.73 311.203 17.0611C308.284 16.3314 304.97 15.1761 304.97 11.0411C304.97 6.96688 308.223 4.3217 312.875 4.3217C315.398 4.3217 317.588 4.89938 319.442 6.08515V11.1627C317.466 9.46003 315.216 8.54791 312.905 8.54791C310.686 8.54791 309.682 9.46003 309.682 10.7674C309.682 12.166 311.476 12.6221 313.544 13.1694C316.584 13.9599 320.446 14.9936 320.446 19.4631C320.446 23.5068 317.436 26.3953 312.571 26.3953C309.895 26.3953 307.159 25.7568 305.213 24.571ZM180.511 47.3348V56H175.95V34.717H188.142V38.8519H180.511V43.1694H187.534V47.3348H180.511ZM191.509 34.717H196.1V56H191.509V34.717ZM205.125 48.2165V56H200.594V34.717H207.678C212.27 34.717 215.462 37.1797 215.462 41.5275C215.462 44.568 213.638 46.6963 211.084 47.6692L216.952 56H211.57L206.341 48.2165H205.125ZM205.125 38.8215V44.4463H207.709C209.533 44.4463 210.871 43.4126 210.871 41.6187C210.871 39.7945 209.533 38.8215 207.709 38.8215H205.125ZM218.81 54.571V49.159C220.878 51.0745 223.766 52.1082 226.077 52.1082C228.144 52.1082 229.3 51.2873 229.3 49.7975C229.3 48.0645 227.171 47.73 224.8 47.0611C221.881 46.3314 218.567 45.1761 218.567 41.0411C218.567 36.9669 221.82 34.3217 226.472 34.3217C228.995 34.3217 231.185 34.8994 233.039 36.0852V41.1627C231.063 39.46 228.813 38.5479 226.502 38.5479C224.283 38.5479 223.279 39.46 223.279 40.7674C223.279 42.166 225.073 42.6221 227.141 43.1694C230.181 43.9599 234.043 44.9936 234.043 49.4631C234.043 53.5068 231.033 56.3953 226.168 56.3953C223.492 56.3953 220.756 55.7568 218.81 54.571ZM235.294 38.9736V34.717H251.104V38.9736H245.51V56H240.919V38.9736H235.294Z" fill="#6612B5"/>
<path d="M17.8793 4.69971H162.9L145.021 86.9642H0L17.8793 4.69971Z" fill="#6612B5"/>
<path d="M121.588 66.6252C111.326 66.6252 104.712 60.2395 104.712 50.0339V25.9165H117.255V49.3497C117.255 52.8276 118.681 54.538 121.588 54.538C124.496 54.538 125.921 52.8276 125.921 49.3497V25.9165H138.465V50.0339C138.465 60.2395 131.851 66.6252 121.588 66.6252Z" fill="white"/>
<path d="M87.8555 25.9165H100.399V65.827H87.8555V25.9165Z" fill="white"/>
<path d="M58.6992 65.827V25.9165H83.6148V37.0914H71.1285V40.4553H83.6148V51.1742H71.1285V54.6521H83.7288V65.827H58.6992Z" fill="white"/>
<path d="M24.0762 63.6051V51.1188C27.7252 53.2284 33.0276 55.395 38.1019 55.395C40.5536 55.395 42.207 54.9389 42.207 53.3994C42.207 49.4084 23.6201 53.7415 23.6201 38.6896C23.6201 28.826 31.9443 25.063 39.8124 25.063C44.4306 25.063 49.1058 26.0893 53.667 28.3128V40.4C50.2461 38.5185 44.6016 36.352 40.1545 36.352C37.8739 36.352 36.5055 36.8651 36.5055 38.1764C36.5055 42.2815 55.3775 38.8036 55.3775 52.7723C55.3775 63.206 45.913 66.6839 38.444 66.6839C33.8828 66.6839 28.6374 65.7147 24.0762 63.6051Z" fill="white"/>
</svg>
